<svg xmlns:rdf="http://www.w3.org/1999/02/22-rdf-syntax-ns#" xmlns:cc="http://creativecommons.org/ns#" xmlns:dc="http://purl.org/dc/elements/1.1/" xmlns:tess="https://github.com/scala-tessella/tessella" width="290.0000000000002" height="290.00000000000034" xmlns="http://www.w3.org/2000/svg">
  <rect width="100%" height="100%" fill="white"/>
  <polygon data-nodes="18,19,20,21,22,23,24,25,26,27,28,29,30,31,32,33,34,35,36,17" points="20.0000000000000980768678308360618,120.0000000000003253850573533118097 20.00000000000013980783042290997480,170.0000000000003253850573533117923 20.00000000000018153879301498389780,220.0000000000003373081895224757500 20.00000000000023519288777622179875,270.0000000000003492313216916396964 70.00000000000023519288777622176322,270.0000000000002896156608458198206 120.0000000000002351928877762217405,270.0000000000002419231321691639200 170.0000000000002471160199453856928,270.0000000000001942306034925080081 220.0000000000002709622842837136075,270.0000000000001346149426466881040 270.0000000000002828854164528775314,270.0000000000000630761496317042362 270.0000000000002053850573533116930,220.0000000000000630761496317042962 270.0000000000001398078304229098298,170.0000000000000630761496317043392 270.0000000000000742306034925079509,120.0000000000000511530174625404070 269.9999999999999967302443929420755,70.00000000000002730675312421251670 269.9999999999999073067531242122406,20.0000000000000153836209550486215 219.9999999999999073067531242123316,20.0000000000001107686783083604227 169.9999999999999073067531242124012,20.0000000000001942306034925082487 120.0000000000000026918104775242336,20.00000000000024192313216916403270 70.00000000000001461494264668821590,20.00000000000027769252867665594395 19.9999999999999907686783083602855,20.00000000000032538505735331186725 20.0000000000000444227730695981736,70.00000000000032538505735331183848" fill="none" stroke="#e4e4e4" stroke-width="10.5" />
  <g id="tiling-polygons">
    <polygon data-nodes="1,2,3,4" points="120.0000000000001100000000000000014,120.0000000000002419231321691639751 120.0000000000001398078304229099393,170.0000000000002419231321691639662 170.0000000000001398078304229099166,170.0000000000001942306034925080657 170.0000000000000742306034925080533,120.0000000000001942306034925081087" fill="rgb(76,175,80)" stroke="#333" stroke-width="1.5" />
    <polygon data-nodes="5,6,2,1" points="70.00000000000009807686783083603905,120.0000000000002776925286766559091 70.00000000000013980783042290995208,170.0000000000002776925286766558917 120.0000000000001398078304229099393,170.0000000000002419231321691639662 120.0000000000001100000000000000014,120.0000000000002419231321691639751" fill="rgb(76,175,80)" stroke="#333" stroke-width="1.5" />
    <polygon data-nodes="7,8,2,6" points="70.00000000000018153879301498387505,220.0000000000002896156608458198494 120.0000000000001815387930149838523,220.0000000000002419231321691639488 120.0000000000001398078304229099393,170.0000000000002419231321691639662 70.00000000000013980783042290995208,170.0000000000002776925286766558917" fill="rgb(76,175,80)" stroke="#333" stroke-width="1.5" />
    <polygon data-nodes="8,9,3,2" points="120.0000000000001815387930149838523,220.0000000000002419231321691639488 170.0000000000001934619251841478046,220.0000000000001942306034925080369 170.0000000000001398078304229099166,170.0000000000001942306034925080657 120.0000000000001398078304229099393,170.0000000000002419231321691639662" fill="rgb(76,175,80)" stroke="#333" stroke-width="1.5" />
    <polygon data-nodes="10,11,3,9" points="220.0000000000002053850573533117442,220.0000000000001346149426466881470 220.0000000000001398078304229098810,170.0000000000001346149426466881900 170.0000000000001398078304229099166,170.0000000000001942306034925080657 170.0000000000001934619251841478046,220.0000000000001942306034925080369" fill="rgb(76,175,80)" stroke="#333" stroke-width="1.5" />
    <polygon data-nodes="11,12,4,3" points="220.0000000000001398078304229098810,170.0000000000001346149426466881900 220.0000000000000742306034925080021,120.0000000000001226918104775242578 170.0000000000000742306034925080533,120.0000000000001942306034925081087 170.0000000000001398078304229099166,170.0000000000001942306034925080657" fill="rgb(76,175,80)" stroke="#333" stroke-width="1.5" />
    <polygon data-nodes="13,14,4,12" points="219.9999999999999967302443929421452,70.00000000000011076867830836034275 169.9999999999999967302443929422148,70.00000000000019423060349250816875 170.0000000000000742306034925080533,120.0000000000001942306034925081087 220.0000000000000742306034925080021,120.0000000000001226918104775242578" fill="rgb(76,175,80)" stroke="#333" stroke-width="1.5" />
    <polygon data-nodes="14,15,1,4" points="169.9999999999999967302443929422148,70.00000000000019423060349250816875 120.0000000000000563459052387621133,70.00000000000024192313216916400394 120.0000000000001100000000000000014,120.0000000000002419231321691639751 170.0000000000000742306034925080533,120.0000000000001942306034925081087" fill="rgb(76,175,80)" stroke="#333" stroke-width="1.5" />
    <polygon data-nodes="15,16,5,1" points="120.0000000000000563459052387621133,70.00000000000024192313216916400394 70.00000000000005634590523876212605,70.00000000000027769252867665592653 70.00000000000009807686783083603905,120.0000000000002776925286766559091 120.0000000000001100000000000000014,120.0000000000002419231321691639751" fill="rgb(76,175,80)" stroke="#333" stroke-width="1.5" />
    <polygon data-nodes="17,18,5,16" points="20.0000000000000444227730695981736,70.00000000000032538505735331183848 20.0000000000000980768678308360618,120.0000000000003253850573533118097 70.00000000000009807686783083603905,120.0000000000002776925286766559091 70.00000000000005634590523876212605,70.00000000000027769252867665592653" fill="rgb(76,175,80)" stroke="#333" stroke-width="1.5" />
    <polygon data-nodes="18,19,6,5" points="20.0000000000000980768678308360618,120.0000000000003253850573533118097 20.00000000000013980783042290997480,170.0000000000003253850573533117923 70.00000000000013980783042290995208,170.0000000000002776925286766558917 70.00000000000009807686783083603905,120.0000000000002776925286766559091" fill="rgb(76,175,80)" stroke="#333" stroke-width="1.5" />
    <polygon data-nodes="19,20,7,6" points="20.00000000000013980783042290997480,170.0000000000003253850573533117923 20.00000000000018153879301498389780,220.0000000000003373081895224757500 70.00000000000018153879301498387505,220.0000000000002896156608458198494 70.00000000000013980783042290995208,170.0000000000002776925286766558917" fill="rgb(76,175,80)" stroke="#333" stroke-width="1.5" />
    <polygon data-nodes="21,22,7,20" points="20.00000000000023519288777622179875,270.0000000000003492313216916396964 70.00000000000023519288777622176322,270.0000000000002896156608458198206 70.00000000000018153879301498387505,220.0000000000002896156608458198494 20.00000000000018153879301498389780,220.0000000000003373081895224757500" fill="rgb(76,175,80)" stroke="#333" stroke-width="1.5" />
    <polygon data-nodes="22,23,8,7" points="70.00000000000023519288777622176322,270.0000000000002896156608458198206 120.0000000000002351928877762217405,270.0000000000002419231321691639200 120.0000000000001815387930149838523,220.0000000000002419231321691639488 70.00000000000018153879301498387505,220.0000000000002896156608458198494" fill="rgb(76,175,80)" stroke="#333" stroke-width="1.5" />
    <polygon data-nodes="23,24,9,8" points="120.0000000000002351928877762217405,270.0000000000002419231321691639200 170.0000000000002471160199453856928,270.0000000000001942306034925080081 170.0000000000001934619251841478046,220.0000000000001942306034925080369 120.0000000000001815387930149838523,220.0000000000002419231321691639488" fill="rgb(76,175,80)" stroke="#333" stroke-width="1.5" />
    <polygon data-nodes="24,25,10,9" points="170.0000000000002471160199453856928,270.0000000000001942306034925080081 220.0000000000002709622842837136075,270.0000000000001346149426466881040 220.0000000000002053850573533117442,220.0000000000001346149426466881470 170.0000000000001934619251841478046,220.0000000000001942306034925080369" fill="rgb(76,175,80)" stroke="#333" stroke-width="1.5" />
    <polygon data-nodes="26,27,10,25" points="270.0000000000002828854164528775314,270.0000000000000630761496317042362 270.0000000000002053850573533116930,220.0000000000000630761496317042962 220.0000000000002053850573533117442,220.0000000000001346149426466881470 220.0000000000002709622842837136075,270.0000000000001346149426466881040" fill="rgb(76,175,80)" stroke="#333" stroke-width="1.5" />
    <polygon data-nodes="27,28,11,10" points="270.0000000000002053850573533116930,220.0000000000000630761496317042962 270.0000000000001398078304229098298,170.0000000000000630761496317043392 220.0000000000001398078304229098810,170.0000000000001346149426466881900 220.0000000000002053850573533117442,220.0000000000001346149426466881470" fill="rgb(76,175,80)" stroke="#333" stroke-width="1.5" />
    <polygon data-nodes="28,29,12,11" points="270.0000000000001398078304229098298,170.0000000000000630761496317043392 270.0000000000000742306034925079509,120.0000000000000511530174625404070 220.0000000000000742306034925080021,120.0000000000001226918104775242578 220.0000000000001398078304229098810,170.0000000000001346149426466881900" fill="rgb(76,175,80)" stroke="#333" stroke-width="1.5" />
    <polygon data-nodes="29,30,13,12" points="270.0000000000000742306034925079509,120.0000000000000511530174625404070 269.9999999999999967302443929420755,70.00000000000002730675312421251670 219.9999999999999967302443929421452,70.00000000000011076867830836034275 220.0000000000000742306034925080021,120.0000000000001226918104775242578" fill="rgb(76,175,80)" stroke="#333" stroke-width="1.5" />
    <polygon data-nodes="31,32,13,30" points="269.9999999999999073067531242122406,20.0000000000000153836209550486215 219.9999999999999073067531242123316,20.0000000000001107686783083604227 219.9999999999999967302443929421452,70.00000000000011076867830836034275 269.9999999999999967302443929420755,70.00000000000002730675312421251670" fill="rgb(76,175,80)" stroke="#333" stroke-width="1.5" />
    <polygon data-nodes="32,33,14,13" points="219.9999999999999073067531242123316,20.0000000000001107686783083604227 169.9999999999999073067531242124012,20.0000000000001942306034925082487 169.9999999999999967302443929422148,70.00000000000019423060349250816875 219.9999999999999967302443929421452,70.00000000000011076867830836034275" fill="rgb(76,175,80)" stroke="#333" stroke-width="1.5" />
    <polygon data-nodes="33,34,15,14" points="169.9999999999999073067531242124012,20.0000000000001942306034925082487 120.0000000000000026918104775242336,20.00000000000024192313216916403270 120.0000000000000563459052387621133,70.00000000000024192313216916400394 169.9999999999999967302443929422148,70.00000000000019423060349250816875" fill="rgb(76,175,80)" stroke="#333" stroke-width="1.5" />
    <polygon data-nodes="34,35,16,15" points="120.0000000000000026918104775242336,20.00000000000024192313216916403270 70.00000000000001461494264668821590,20.00000000000027769252867665594395 70.00000000000005634590523876212605,70.00000000000027769252867665592653 120.0000000000000563459052387621133,70.00000000000024192313216916400394" fill="rgb(76,175,80)" stroke="#333" stroke-width="1.5" />
    <polygon data-nodes="35,36,17,16" points="70.00000000000001461494264668821590,20.00000000000027769252867665594395 19.9999999999999907686783083602855,20.00000000000032538505735331186725 20.0000000000000444227730695981736,70.00000000000032538505735331183848 70.00000000000005634590523876212605,70.00000000000027769252867665592653" fill="rgb(76,175,80)" stroke="#333" stroke-width="1.5" />
  </g>

  <metadata>
    <rdf:RDF>
      <cc:Work>
        <dc:source rdf:resource="https://github.com/scala-tessella/tessella">Tessella</dc:source>
        <cc:license rdf:resource="https://www.apache.org/licenses/LICENSE-2.0"/>
      </cc:Work>
    </rdf:RDF>
    <tess:tilingCoordinates>
      <tess:coord node="5" x="-1.000000000000000238462643383279219" y="9.538505735331181823E-16" />
      <tess:coord node="10" x="2.000000000000001907701147066234885" y="1.999999999999998092298852933762940" />
      <tess:coord node="14" x="0.9999999999999977346048878588442963" y="-1.000000000000000715387930149836625" />
      <tess:coord node="1" x="2.84E-32" y="2.384626433832795028842015308825921E-16" />
      <tess:coord node="6" x="-0.9999999999999994038433915418009585" y="1.000000000000000953850573533117834" />
      <tess:coord node="9" x="1.000000000000001669238503682956093" y="1.999999999999999284612069850160738" />
      <tess:coord node="13" x="1.999999999999997734604887858842903" y="-1.000000000000002384626433832793145" />
      <tess:coord node="2" x="5.961566084581987856103157481103486E-16" y="1.000000000000000238462643383279325" />
      <tess:coord node="12" x="1.999999999999999284612069850160042" y="-2.146163790449514843742072688137339E-15" />
      <tess:coord node="7" x="-0.9999999999999985692241397003224990" y="2.000000000000001192313216916396989" />
      <tess:coord node="18" x="-2.000000000000000238462643383278764" y="1.907701147066236193742014259080059E-15" />
      <tess:coord node="11" x="2.000000000000000596156608458197620" y="0.9999999999999980922988529337638001" />
      <tess:coord node="8" x="1.430775860299677046052403196754423E-15" y="2.000000000000000238462643383278977" />
      <tess:coord node="4" x="0.9999999999999992846120698501610651" y="-7.153879301498378264E-16" />
      <tess:coord node="15" x="-1.073081895224757734699465589591998E-15" y="-0.9999999999999997615373566167199213" />
      <tess:coord node="24" x="1.000000000000002742320398907713856" y="2.999999999999999284612069850160162" />
      <tess:coord node="25" x="2.000000000000003219245685674272150" y="2.999999999999998092298852933762080" />
      <tess:coord node="20" x="-1.999999999999998569224139700322044" y="2.000000000000002146163790449515001" />
      <tess:coord node="29" x="2.999999999999999284612069850159018" y="-3.576939650749191860430006279929092E-15" />
      <tess:coord node="28" x="3.000000000000000596156608458196596" y="0.9999999999999966615229926340867837" />
      <tess:coord node="21" x="-1.999999999999997496142244475564025" y="3.000000000000002384626433832793928" />
      <tess:coord node="33" x="0.9999999999999959461350624842480249" y="-2.000000000000000715387930149835026" />
      <tess:coord node="17" x="-2.000000000000001311544538608036527" y="-0.9999999999999980922988529337632305" />
      <tess:coord node="32" x="1.999999999999995946135062484246631" y="-2.000000000000002384626433832791546" />
      <tess:coord node="34" x="-2.146163790449515327130693134709323E-15" y="-1.999999999999999761537356616719346" />
      <tess:coord node="22" x="-0.9999999999999974961422444755647356" y="3.000000000000001192313216916396413" />
      <tess:coord node="27" x="3.000000000000001907701147066233861" y="1.999999999999996661522992634085924" />
      <tess:coord node="3" x="1.000000000000000596156608458198331" y="0.9999999999999992846120698501613135" />
      <tess:coord node="35" x="-1.000000000000001907701147066235682" y="-1.999999999999999046149426466881121" />
      <tess:coord node="16" x="-1.000000000000001073081895224757479" y="-0.9999999999999990461494264668814694" />
      <tess:coord node="31" x="2.999999999999995946135062484244811" y="-2.000000000000004292327580899027570" />
      <tess:coord node="26" x="3.000000000000003457708329057550629" y="2.999999999999996661522992634084723" />
      <tess:coord node="23" x="2.503857755524434809494548899498134E-15" y="3.000000000000000238462643383278401" />
      <tess:coord node="36" x="-2.000000000000002384626433832794290" y="-1.999999999999998092298852933762655" />
      <tess:coord node="30" x="2.999999999999997734604887858841510" y="-1.000000000000004053864937515749666" />
      <tess:coord node="19" x="-1.999999999999999403843391541800504" y="1.000000000000001907701147066235846" />
    </tess:tilingCoordinates>
  </metadata>
</svg>