<svg xmlns:rdf="http://www.w3.org/1999/02/22-rdf-syntax-ns#" xmlns:cc="http://creativecommons.org/ns#" xmlns:dc="http://purl.org/dc/elements/1.1/" xmlns:tess="https://github.com/scala-tessella/tessella" width="390" height="343.10889132455384" xmlns="http://www.w3.org/2000/svg">
  <rect width="100%" height="100%" fill="white"/>
  <polygon data-nodes="16,17,18,19,20,22,21,23,24,25,26,27,29,28,30,31,32,33,34,36,35" points="144.9999999999997103050757555296306,106.6025403784439836731646609544632 119.9999999999997971171531692309920,149.9038105676659845530573746117094 94.99999999999986000000000000019420,193.2050807568879578018546511560479 69.9999999999998614208904331484558,236.5063509461098492457331092601043 44.9999999999999254783998423500626,279.8076211353318476890265270756250 20.0000000000000121744229155868762,323.1088913245538577122803817293466 70.0000000000000121744229155867568,323.1088913245537483939707180185905 120.0000000000000281272433042080326,323.1088913245536390756610543077996 170.0000000000000287726017636564235,323.1088913245535555254574262781262 220.0000000000000330834860905359408,323.1088913245534790693265976698791 270.0000000000000042142844105572772,323.1088913245534756755347193522636 320.0000000000000222963745319729082,323.1088913245533953377450533922938 370.0000000000000462256051149048661,323.1088913245532772413155919812270 344.9999999999999479393022022413256,279.8076211353314016487528777231230 319.9999999999998416765890952670560,236.5063509461095122406424449085676 294.9999999999997730067381894251800,193.2050807568876217380257387527126 269.9999999999996945078910231873242,149.9038105676657323973293959705437 244.9999999999997364152214687500011,106.6025403784438258950546993313352 219.9999999999996525008915870598892,63.3012701892219177197646850420912 194.9999999999995312438420649660511,20.0000000000000156157408712060486 169.9999999999996155165881475176018,63.3012701892219966088196658537040" fill="none" stroke="#e4e4e4" stroke-width="10.5" />
  <g id="tiling-polygons">
    <polygon data-nodes="1,2,3" points="194.9999999999998600000000000000014,193.2050807568877619231321691639751 219.9999999999998614208904331483566,236.5063509461096934409668536344551 244.9999999999998008873687592439189,193.2050807568877261537356616720920" fill="rgb(76,175,80)" stroke="#333" stroke-width="1.5" />
    <polygon data-nodes="4,2,1" points="169.9999999999998614208904331483606,236.5063509461097135024000931774155 219.9999999999998614208904331483566,236.5063509461096934409668536344551 194.9999999999998600000000000000014,193.2050807568877619231321691639751" fill="rgb(76,175,80)" stroke="#333" stroke-width="1.5" />
    <polygon data-nodes="5,3,2" points="269.9999999999998773737108217696894,236.5063509461096143325116410805993 244.9999999999998008873687592439189,193.2050807568877261537356616720920 219.9999999999998614208904331483566,236.5063509461096934409668536344551" fill="rgb(76,175,80)" stroke="#333" stroke-width="1.5" />
    <polygon data-nodes="6,1,3" points="219.9999999999998130699735578522063,149.9038105676658024898826111760777 194.9999999999998600000000000000014,193.2050807568877619231321691639751 244.9999999999998008873687592439189,193.2050807568877261537356616720920" fill="rgb(76,175,80)" stroke="#333" stroke-width="1.5" />
    <polygon data-nodes="7,1,6" points="169.9999999999997971171531692308512,149.9038105676658658903745557809635 194.9999999999998600000000000000014,193.2050807568877619231321691639751 219.9999999999998130699735578522063,149.9038105676658024898826111760777" fill="rgb(76,175,80)" stroke="#333" stroke-width="1.5" />
    <polygon data-nodes="8,1,7" points="144.9999999999998600000000000000843,193.2050807568878529547195508817809 194.9999999999998600000000000000014,193.2050807568877619231321691639751 169.9999999999997971171531692308512,149.9038105676658658903745557809635" fill="rgb(76,175,80)" stroke="#333" stroke-width="1.5" />
    <polygon data-nodes="4,1,8" points="169.9999999999998614208904331483606,236.5063509461097135024000931774155 194.9999999999998600000000000000014,193.2050807568877619231321691639751 144.9999999999998600000000000000843,193.2050807568878529547195508817809" fill="rgb(76,175,80)" stroke="#333" stroke-width="1.5" />
    <polygon data-nodes="9,4,8" points="119.9999999999998614208904331483915,236.5063509461097690489104038077760 169.9999999999998614208904331483606,236.5063509461097135024000931774155 144.9999999999998600000000000000843,193.2050807568878529547195508817809" fill="rgb(76,175,80)" stroke="#333" stroke-width="1.5" />
    <polygon data-nodes="10,4,9" points="144.9999999999999254783998423499266,279.8076211353316828242065527345086 169.9999999999998614208904331483606,236.5063509461097135024000931774155 119.9999999999998614208904331483915,236.5063509461097690489104038077760" fill="rgb(76,175,80)" stroke="#333" stroke-width="1.5" />
    <polygon data-nodes="11,10,9" points="94.99999999999992547839984234999585,279.8076211353317660018123004778092 144.9999999999999254783998423499266,279.8076211353316828242065527345086 119.9999999999998614208904331483915,236.5063509461097690489104038077760" fill="rgb(76,175,80)" stroke="#333" stroke-width="1.5" />
    <polygon data-nodes="12,4,10" points="194.9999999999999414312202309712528,279.8076211353315996466008049911814 169.9999999999998614208904331483606,236.5063509461097135024000931774155 144.9999999999999254783998423499266,279.8076211353316828242065527345086" fill="rgb(76,175,80)" stroke="#333" stroke-width="1.5" />
    <polygon data-nodes="2,4,12" points="219.9999999999998614208904331483566,236.5063509461096934409668536344551 169.9999999999998614208904331483606,236.5063509461097135024000931774155 194.9999999999999414312202309712528,279.8076211353315996466008049911814" fill="rgb(76,175,80)" stroke="#333" stroke-width="1.5" />
    <polygon data-nodes="13,2,12" points="244.9999999999999260657311315660680,279.8076211353315884564368332200966 219.9999999999998614208904331483566,236.5063509461096934409668536344551 194.9999999999999414312202309712528,279.8076211353315996466008049911814" fill="rgb(76,175,80)" stroke="#333" stroke-width="1.5" />
    <polygon data-nodes="5,2,13" points="269.9999999999998773737108217696894,236.5063509461096143325116410805993 219.9999999999998614208904331483566,236.5063509461096934409668536344551 244.9999999999999260657311315660680,279.8076211353315884564368332200966" fill="rgb(76,175,80)" stroke="#333" stroke-width="1.5" />
    <polygon data-nodes="14,5,13" points="294.9999999999999479393022022414343,279.8076211353315059296346205776719 269.9999999999998773737108217696894,236.5063509461096143325116410805993 244.9999999999999260657311315660680,279.8076211353315884564368332200966" fill="rgb(76,175,80)" stroke="#333" stroke-width="1.5" />
    <polygon data-nodes="15,7,6" points="194.9999999999997262578961441509431,106.6025403784438926415772792366285 169.9999999999997971171531692308512,149.9038105676658658903745557809635 219.9999999999998130699735578522063,149.9038105676658024898826111760777" fill="rgb(76,175,80)" stroke="#333" stroke-width="1.5" />
    <polygon data-nodes="16,7,15" points="144.9999999999997103050757555296306,106.6025403784439836731646609544632 169.9999999999997971171531692308512,149.9038105676658658903745557809635 194.9999999999997262578961441509431,106.6025403784438926415772792366285" fill="rgb(76,175,80)" stroke="#333" stroke-width="1.5" />
    <polygon data-nodes="17,7,16" points="119.9999999999997971171531692309920,149.9038105676659845530573746117094 169.9999999999997971171531692308512,149.9038105676658658903745557809635 144.9999999999997103050757555296306,106.6025403784439836731646609544632" fill="rgb(76,175,80)" stroke="#333" stroke-width="1.5" />
    <polygon data-nodes="8,7,17" points="144.9999999999998600000000000000843,193.2050807568878529547195508817809 169.9999999999997971171531692308512,149.9038105676658658903745557809635 119.9999999999997971171531692309920,149.9038105676659845530573746117094" fill="rgb(76,175,80)" stroke="#333" stroke-width="1.5" />
    <polygon data-nodes="18,8,17" points="94.99999999999986000000000000019420,193.2050807568879578018546511560479 144.9999999999998600000000000000843,193.2050807568878529547195508817809 119.9999999999997971171531692309920,149.9038105676659845530573746117094" fill="rgb(76,175,80)" stroke="#333" stroke-width="1.5" />
    <polygon data-nodes="9,8,18" points="119.9999999999998614208904331483915,236.5063509461097690489104038077760 144.9999999999998600000000000000843,193.2050807568878529547195508817809 94.99999999999986000000000000019420,193.2050807568879578018546511560479" fill="rgb(76,175,80)" stroke="#333" stroke-width="1.5" />
    <polygon data-nodes="19,9,18" points="69.9999999999998614208904331484558,236.5063509461098492457331092601043 119.9999999999998614208904331483915,236.5063509461097690489104038077760 94.99999999999986000000000000019420,193.2050807568879578018546511560479" fill="rgb(76,175,80)" stroke="#333" stroke-width="1.5" />
    <polygon data-nodes="11,9,19" points="94.99999999999992547839984234999585,279.8076211353317660018123004778092 119.9999999999998614208904331483915,236.5063509461097690489104038077760 69.9999999999998614208904331484558,236.5063509461098492457331092601043" fill="rgb(76,175,80)" stroke="#333" stroke-width="1.5" />
    <polygon data-nodes="20,11,19" points="44.9999999999999254783998423500626,279.8076211353318476890265270756250 94.99999999999992547839984234999585,279.8076211353317660018123004778092 69.9999999999998614208904331484558,236.5063509461098492457331092601043" fill="rgb(76,175,80)" stroke="#333" stroke-width="1.5" />
    <polygon data-nodes="21,11,20" points="70.0000000000000121744229155867568,323.1088913245537483939707180185905 94.99999999999992547839984234999585,279.8076211353317660018123004778092 44.9999999999999254783998423500626,279.8076211353318476890265270756250" fill="rgb(76,175,80)" stroke="#333" stroke-width="1.5" />
    <polygon data-nodes="22,21,20" points="20.0000000000000121744229155868762,323.1088913245538577122803817293466 70.0000000000000121744229155867568,323.1088913245537483939707180185905 44.9999999999999254783998423500626,279.8076211353318476890265270756250" fill="rgb(76,175,80)" stroke="#333" stroke-width="1.5" />
    <polygon data-nodes="23,11,21" points="120.0000000000000281272433042080326,323.1088913245536390756610543077996 94.99999999999992547839984234999585,279.8076211353317660018123004778092 70.0000000000000121744229155867568,323.1088913245537483939707180185905" fill="rgb(76,175,80)" stroke="#333" stroke-width="1.5" />
    <polygon data-nodes="10,11,23" points="144.9999999999999254783998423499266,279.8076211353316828242065527345086 94.99999999999992547839984234999585,279.8076211353317660018123004778092 120.0000000000000281272433042080326,323.1088913245536390756610543077996" fill="rgb(76,175,80)" stroke="#333" stroke-width="1.5" />
    <polygon data-nodes="24,10,23" points="170.0000000000000287726017636564235,323.1088913245535555254574262781262 144.9999999999999254783998423499266,279.8076211353316828242065527345086 120.0000000000000281272433042080326,323.1088913245536390756610543077996" fill="rgb(76,175,80)" stroke="#333" stroke-width="1.5" />
    <polygon data-nodes="12,10,24" points="194.9999999999999414312202309712528,279.8076211353315996466008049911814 144.9999999999999254783998423499266,279.8076211353316828242065527345086 170.0000000000000287726017636564235,323.1088913245535555254574262781262" fill="rgb(76,175,80)" stroke="#333" stroke-width="1.5" />
    <polygon data-nodes="25,12,24" points="220.0000000000000330834860905359408,323.1088913245534790693265976698791 194.9999999999999414312202309712528,279.8076211353315996466008049911814 170.0000000000000287726017636564235,323.1088913245535555254574262781262" fill="rgb(76,175,80)" stroke="#333" stroke-width="1.5" />
    <polygon data-nodes="13,12,25" points="244.9999999999999260657311315660680,279.8076211353315884564368332200966 194.9999999999999414312202309712528,279.8076211353315996466008049911814 220.0000000000000330834860905359408,323.1088913245534790693265976698791" fill="rgb(76,175,80)" stroke="#333" stroke-width="1.5" />
    <polygon data-nodes="26,13,25" points="270.0000000000000042142844105572772,323.1088913245534756755347193522636 244.9999999999999260657311315660680,279.8076211353315884564368332200966 220.0000000000000330834860905359408,323.1088913245534790693265976698791" fill="rgb(76,175,80)" stroke="#333" stroke-width="1.5" />
    <polygon data-nodes="14,13,26" points="294.9999999999999479393022022414343,279.8076211353315059296346205776719 244.9999999999999260657311315660680,279.8076211353315884564368332200966 270.0000000000000042142844105572772,323.1088913245534756755347193522636" fill="rgb(76,175,80)" stroke="#333" stroke-width="1.5" />
    <polygon data-nodes="27,14,26" points="320.0000000000000222963745319729082,323.1088913245533953377450533922938 294.9999999999999479393022022414343,279.8076211353315059296346205776719 270.0000000000000042142844105572772,323.1088913245534756755347193522636" fill="rgb(76,175,80)" stroke="#333" stroke-width="1.5" />
    <polygon data-nodes="28,14,27" points="344.9999999999999479393022022413256,279.8076211353314016487528777231230 294.9999999999999479393022022414343,279.8076211353315059296346205776719 320.0000000000000222963745319729082,323.1088913245533953377450533922938" fill="rgb(76,175,80)" stroke="#333" stroke-width="1.5" />
    <polygon data-nodes="29,28,27" points="370.0000000000000462256051149048661,323.1088913245532772413155919812270 344.9999999999999479393022022413256,279.8076211353314016487528777231230 320.0000000000000222963745319729082,323.1088913245533953377450533922938" fill="rgb(76,175,80)" stroke="#333" stroke-width="1.5" />
    <polygon data-nodes="30,14,28" points="319.9999999999998416765890952670560,236.5063509461095122406424449085676 294.9999999999999479393022022414343,279.8076211353315059296346205776719 344.9999999999999479393022022413256,279.8076211353314016487528777231230" fill="rgb(76,175,80)" stroke="#333" stroke-width="1.5" />
    <polygon data-nodes="5,14,30" points="269.9999999999998773737108217696894,236.5063509461096143325116410805993 294.9999999999999479393022022414343,279.8076211353315059296346205776719 319.9999999999998416765890952670560,236.5063509461095122406424449085676" fill="rgb(76,175,80)" stroke="#333" stroke-width="1.5" />
    <polygon data-nodes="31,5,30" points="294.9999999999997730067381894251800,193.2050807568876217380257387527126 269.9999999999998773737108217696894,236.5063509461096143325116410805993 319.9999999999998416765890952670560,236.5063509461095122406424449085676" fill="rgb(76,175,80)" stroke="#333" stroke-width="1.5" />
    <polygon data-nodes="3,5,31" points="244.9999999999998008873687592439189,193.2050807568877261537356616720920 269.9999999999998773737108217696894,236.5063509461096143325116410805993 294.9999999999997730067381894251800,193.2050807568876217380257387527126" fill="rgb(76,175,80)" stroke="#333" stroke-width="1.5" />
    <polygon data-nodes="32,3,31" points="269.9999999999996945078910231873242,149.9038105676657323973293959705437 244.9999999999998008873687592439189,193.2050807568877261537356616720920 294.9999999999997730067381894251800,193.2050807568876217380257387527126" fill="rgb(76,175,80)" stroke="#333" stroke-width="1.5" />
    <polygon data-nodes="6,3,32" points="219.9999999999998130699735578522063,149.9038105676658024898826111760777 244.9999999999998008873687592439189,193.2050807568877261537356616720920 269.9999999999996945078910231873242,149.9038105676657323973293959705437" fill="rgb(76,175,80)" stroke="#333" stroke-width="1.5" />
    <polygon data-nodes="33,6,32" points="244.9999999999997364152214687500011,106.6025403784438258950546993313352 219.9999999999998130699735578522063,149.9038105676658024898826111760777 269.9999999999996945078910231873242,149.9038105676657323973293959705437" fill="rgb(76,175,80)" stroke="#333" stroke-width="1.5" />
    <polygon data-nodes="15,6,33" points="194.9999999999997262578961441509431,106.6025403784438926415772792366285 219.9999999999998130699735578522063,149.9038105676658024898826111760777 244.9999999999997364152214687500011,106.6025403784438258950546993313352" fill="rgb(76,175,80)" stroke="#333" stroke-width="1.5" />
    <polygon data-nodes="34,15,33" points="219.9999999999996525008915870598892,63.3012701892219177197646850420912 194.9999999999997262578961441509431,106.6025403784438926415772792366285 244.9999999999997364152214687500011,106.6025403784438258950546993313352" fill="rgb(76,175,80)" stroke="#333" stroke-width="1.5" />
    <polygon data-nodes="35,16,15" points="169.9999999999996155165881475176018,63.3012701892219966088196658537040 144.9999999999997103050757555296306,106.6025403784439836731646609544632 194.9999999999997262578961441509431,106.6025403784438926415772792366285" fill="rgb(76,175,80)" stroke="#333" stroke-width="1.5" />
    <polygon data-nodes="34,35,15" points="219.9999999999996525008915870598892,63.3012701892219177197646850420912 169.9999999999996155165881475176018,63.3012701892219966088196658537040 194.9999999999997262578961441509431,106.6025403784438926415772792366285" fill="rgb(76,175,80)" stroke="#333" stroke-width="1.5" />
    <polygon data-nodes="36,35,34" points="194.9999999999995312438420649660511,20.0000000000000156157408712060486 169.9999999999996155165881475176018,63.3012701892219966088196658537040 219.9999999999996525008915870598892,63.3012701892219177197646850420912" fill="rgb(76,175,80)" stroke="#333" stroke-width="1.5" />
  </g>

  <metadata>
    <rdf:RDF>
      <cc:Work>
        <dc:source rdf:resource="https://github.com/scala-tessella/tessella">Tessella</dc:source>
        <cc:license rdf:resource="https://www.apache.org/licenses/LICENSE-2.0"/>
      </cc:Work>
    </rdf:RDF>
    <tess:tilingCoordinates>
      <tess:coord node="5" x="1.500000000000000347474216435393787" y="0.8660254037844372866502328216119856" />
      <tess:coord node="10" x="-0.9999999999999986904320031530014671" y="1.732050807568878656484131054690171" />
      <tess:coord node="14" x="2.000000000000001758786044044828686" y="1.732050807568875118592692411553438" />
      <tess:coord node="1" x="2.84E-32" y="2.384626433832795028842015308825921E-16" />
      <tess:coord node="6" x="0.4999999999999990613994711570441266" y="-0.8660254037844389502023477764784466" />
      <tess:coord node="9" x="-1.499999999999999971582191337032170" y="0.8660254037844403809782080761555191" />
      <tess:coord node="13" x="1.000000000000001321314622631321361" y="1.732050807568876769128736664401933" />
      <tess:coord node="2" x="0.5000000000000000284178086629671324" y="0.8660254037844388688193370726891019" />
      <tess:coord node="12" x="1.6286244046194250556E-15" y="1.732050807568876992932016099823629" />
      <tess:coord node="7" x="-0.5000000000000012576569366153829759" y="-0.8660254037844376821925088843807305" />
      <tess:coord node="18" x="-1.999999999999999999999999999996116" y="4.156037093023120957236652415094389E-15" />
      <tess:coord node="11" x="-1.999999999999998690432003153000083" y="1.732050807568880320036246009556183" />
      <tess:coord node="8" x="-0.9999999999999999999999999999983142" y="2.059094391017635617282541151788652E-15" />
      <tess:coord node="4" x="-0.4999999999999999715821913370327871" y="0.8660254037844392700480018635483105" />
      <tess:coord node="15" x="-2.6748420771169811387E-15" y="-1.732050807568877147168454415267430" />
      <tess:coord node="24" x="-0.4999999999999966245479647268715291" y="2.598076211353316110509148525562525" />
      <tess:coord node="25" x="0.5000000000000034616697218107188152" y="2.598076211353314581386531953397582" />
      <tess:coord node="20" x="-2.999999999999998690432003152998748" y="1.732050807568881953780530541512501" />
      <tess:coord node="29" x="3.500000000000003724512102298097322" y="2.598076211353310544826311839624541" />
      <tess:coord node="28" x="3.000000000000001758786044044826511" y="1.732050807568873032975057554462459" />
      <tess:coord node="21" x="-2.499999999999996956511541688264865" y="2.598076211353319967879414360371810" />
      <tess:coord node="33" x="0.9999999999999975283044293750000228" y="-1.732050807568878482098906013373296" />
      <tess:coord node="17" x="-1.500000000000001257656936615380160" y="-0.8660254037844353089388525077658129" />
      <tess:coord node="32" x="1.499999999999996690157820463746484" y="-0.8660254037844403520534120805891267" />
      <tess:coord node="34" x="0.4999999999999958500178317411977838" y="-2.598076211353316645604706299158175" />
      <tess:coord node="22" x="-3.499999999999996956511541688262475" y="2.598076211353322154245607634586931" />
      <tess:coord node="27" x="2.500000000000003245927490639458163" y="2.598076211353312906754901067845875" />
      <tess:coord node="3" x="0.9999999999999988177473751848783788" y="-4.769252867665581600E-16" />
      <tess:coord node="35" x="-0.5000000000000048896682370496479642" y="-2.598076211353315067823606682925921" />
      <tess:coord node="16" x="-1.000000000000002993898484889407388" y="-1.732050807568875326536706780910735" />
      <tess:coord node="31" x="1.999999999999998260134763788503599" y="-2.5652394852249457482E-15" />
      <tess:coord node="26" x="1.500000000000002884285688211145545" y="2.598076211353314513510694387045272" />
      <tess:coord node="23" x="-1.499999999999996637455133915839349" y="2.598076211353317781513221086155992" />
      <tess:coord node="36" x="-6.5751231587006789776E-15" y="-3.464101615137754687685182575879028" />
      <tess:coord node="30" x="2.499999999999999633531781905341119" y="0.8660254037844352448128488981713524" />
      <tess:coord node="19" x="-2.499999999999999971582191337030884" y="0.8660254037844419849146621852020852" />
    </tess:tilingCoordinates>
  </metadata>
</svg>